<?xml version="1.0" encoding="UTF-8" standalone="no"?>
<!-- Created with Inkscape (http://www.inkscape.org/) -->

<svg
   width="254mm"
   height="181mm"
   viewBox="0 0 254 181"
   version="1.1"
   id="svg5"
   inkscape:version="1.1.1 (3bf5ae0d25, 2021-09-20)"
   sodipodi:docname="pywake_logo.svg"
   xmlns:inkscape="http://www.inkscape.org/namespaces/inkscape"
   xmlns:sodipodi="http://sodipodi.sourceforge.net/DTD/sodipodi-0.dtd"
   xmlns="http://www.w3.org/2000/svg"
   xmlns:svg="http://www.w3.org/2000/svg">
  <sodipodi:namedview
     id="namedview7"
     pagecolor="#ffffff"
     bordercolor="#666666"
     borderopacity="1.0"
     inkscape:pageshadow="2"
     inkscape:pageopacity="0.0"
     inkscape:pagecheckerboard="0"
     inkscape:document-units="mm"
     showgrid="false"
     inkscape:zoom="0.77771465"
     inkscape:cx="315.66848"
     inkscape:cy="561.25984"
     inkscape:window-width="1920"
     inkscape:window-height="1137"
     inkscape:window-x="1912"
     inkscape:window-y="-8"
     inkscape:window-maximized="1"
     inkscape:current-layer="layer1"
     width="211mm" />
  <defs
     id="defs2">
    <clipPath
       clipPathUnits="userSpaceOnUse"
       id="clipPath840">
      <path
         d="M 0,516.81 H 746.799 V 0 H 0 Z"
         id="path838" />
    </clipPath>
    <clipPath
       clipPathUnits="userSpaceOnUse"
       id="clipPath916">
      <path
         d="m 497.769,400.8 c -5.131,-19.783 -9.18,-45.797 -13.095,-70.955 v 0 c -3.134,-20.134 -6.373,-40.954 -10.03,-57.566 v 0 c -0.343,-1.559 -0.681,-3.037 -1.012,-4.436 v 0 c -0.325,-1.374 -2.28,-1.366 -2.597,0.011 v 0 c -2.3,10.006 -7.121,31.481 -9.447,43.576 v 0 c -3.951,20.555 -8.037,41.81 -13.286,58.191 v 0 c -3.444,10.746 -12.59,39.291 -37.597,39.291 v 0 c -15.658,0 -28.084,-10.457 -36.931,-31.081 v 0 c -5.488,-12.791 -9.653,-28.973 -13.681,-44.624 v 0 c -2.924,-11.356 -5.946,-23.099 -9.218,-32.387 v 0 l -0.045,-0.127 c -1.298,-3.682 -6.482,-3.753 -7.88,-0.108 v 0 c -1.93,5.032 -3.692,10.339 -4.881,13.916 v 0 c -3.649,10.985 -7.422,22.343 -12.981,31.794 v 0 c -10.972,18.651 -25.159,22.566 -35.129,22.566 v 0 h -71.822 v -39.999 h 70.555 c 3.801,-4.041 8.898,-19.388 11.417,-26.971 v 0 c 3.648,-10.984 7.422,-22.342 12.98,-31.792 v 0 c 10.973,-18.652 25.161,-22.568 35.129,-22.568 v 0 c 15.658,0 28.084,10.458 36.931,31.081 v 0 c 5.487,12.792 9.652,28.974 13.682,44.625 v 0 c 1.962,7.625 5.894,20.85 8.405,29.072 v 0 c 0.685,2.246 3.88,2.221 4.521,-0.038 v 0 c 0.278,-0.977 0.562,-2.003 0.85,-3.079 v 0 c 3.502,-13.072 6.653,-29.463 9.7,-45.314 v 0 c 3.953,-20.555 8.038,-41.812 13.288,-58.193 v 0 c 3.443,-10.746 12.589,-39.292 37.597,-39.292 v 0 c 25.889,0 34.313,32.479 37.91,46.348 v 0 c 5.132,19.783 9.181,45.796 13.096,70.955 v 0 c 2.248,14.442 7.096,40.7 9.884,55.282 v 0 c 0.444,2.324 3.757,2.346 4.236,0.03 v 0 c 2.586,-12.508 6.789,-33.356 8.896,-45.532 v 0 c 3.932,-22.718 7.998,-46.21 13.183,-64.187 v 0 c 3.367,-11.668 12.306,-42.663 37.767,-42.663 v 0 c 23.98,0 33.28,26.761 36.338,35.555 v 0 c 5.254,15.116 9.201,34.459 12.795,52.976 v 0 c 0.966,4.975 5.36,8.587 10.45,8.587 v 0 h 41.694 c 3.518,0 5.472,4.072 3.273,6.817 v 0 l -4.988,6.431 c -8.609,11.1 -20.18,19.539 -33.377,24.347 v 0 c -5.443,1.983 -11.34,2.517 -17.008,1.325 v 0 C 627.758,358.545 611.96,343.03 608.03,322.777 v 0 c -2.093,-10.783 -5.533,-25.511 -7.63,-34.239 v 0 c -0.439,-1.829 -3.051,-1.801 -3.445,0.039 v 0 c -2.717,12.658 -7.988,38.208 -10.327,51.72 v 0 c -3.931,22.718 -7.997,46.209 -13.182,64.185 v 0 c -3.366,11.669 -12.307,42.662 -37.767,42.662 v 0 c -25.888,0 -34.312,-32.476 -37.91,-46.344"
         id="path914" />
    </clipPath>
  </defs>
  <g
     inkscape:label="Lag 1"
     inkscape:groupmode="layer"
     id="layer1">
    <g
       id="g830"
       inkscape:label="pywake_logo"
       transform="matrix(0.35277777,0,0,-0.35277777,-0.85200526,180.48601)">
      <path
         d="M 206.864,158.331 H 171.747 V 333.09 h 35.117 z"
         style="fill:#9fbde7;fill-opacity:1;fill-rule:nonzero;stroke:#ffffff;stroke-width:5.141;stroke-linecap:butt;stroke-linejoin:miter;stroke-miterlimit:10;stroke-dasharray:none;stroke-opacity:1"
         id="path832" />
      <g
         id="g834">
        <g
           id="g836"
           clip-path="url(#clipPath840)">
          <g
             id="g842"
             transform="translate(154.65,322.5607)">
            <path
               d="M 0,0 C -0.241,0 -0.486,0.005 -0.73,0.016 L -130.8,5.485 c -8.984,0.378 -16.168,7.715 -16.354,16.705 -0.187,8.991 6.686,16.621 15.646,17.371 L -1.776,50.427 c 0.485,0.041 0.965,0.06 1.443,0.06 9.211,0 16.861,-7.501 17.054,-16.721 L 17.06,17.431 C 17.156,12.803 15.426,8.434 12.188,5.128 8.949,1.821 4.621,0 0.002,0 Z"
               style="fill:#9fbde7;fill-opacity:1;fill-rule:nonzero;stroke:none"
               id="path844" />
          </g>
          <g
             id="g846"
             transform="translate(154.317,376.3322)">
            <path
               d="m 0,0 c -0.569,0 -1.147,-0.023 -1.718,-0.071 l -129.73,-10.867 c -10.685,-0.894 -18.879,-9.992 -18.656,-20.71 0.222,-10.72 8.788,-19.469 19.5,-19.92 l 130.07,-5.47 c 0.29,-0.012 0.579,-0.018 0.867,-0.018 5.511,0 10.672,2.172 14.535,6.116 3.86,3.941 5.923,9.15 5.809,14.667 l -0.34,16.336 C 20.108,-8.943 10.985,0 0,0 m 0,-6.568 c 7.421,0 13.612,-5.945 13.771,-13.506 l 0.338,-16.335 c 0.162,-7.758 -6.093,-14.078 -13.776,-14.078 -0.196,0 -0.394,0.004 -0.592,0.012 l -130.07,5.47 c -7.274,0.306 -13.058,6.213 -13.209,13.492 -0.15,7.28 5.383,13.422 12.638,14.03 L -1.169,-6.617 c 0.393,0.033 0.782,0.049 1.169,0.049"
               style="fill:#ffffff;fill-opacity:1;fill-rule:nonzero;stroke:none"
               id="path848" />
          </g>
          <g
             id="g850"
             transform="translate(273.7584,192.3176)">
            <path
               d="M 0,0 C -5.597,0 -10.843,2.742 -14.034,7.335 L -88.31,114.252 c -2.679,3.857 -3.655,8.703 -2.677,13.297 0.976,4.593 3.841,8.621 7.858,11.053 l 13.977,8.461 c 2.671,1.617 5.723,2.472 8.828,2.472 6.388,0 12.193,-3.514 15.149,-9.17 L 15.123,24.986 C 19.288,17.017 16.524,7.126 8.833,2.47 6.164,0.854 3.109,0 0,0"
               style="fill:#9fbde7;fill-opacity:1;fill-rule:nonzero;stroke:none"
               id="path852" />
          </g>
          <g
             id="g854"
             transform="translate(213.4342,345.1369)">
            <path
               d="m 0,0 v 0 c -3.704,0 -7.345,-1.02 -10.528,-2.946 l -13.978,-8.462 c -4.79,-2.9 -8.205,-7.703 -9.37,-13.18 -1.165,-5.476 -0.001,-11.255 3.193,-15.853 l 74.276,-106.917 c 3.803,-5.476 10.058,-8.746 16.731,-8.746 3.709,0 7.352,1.019 10.533,2.945 9.172,5.553 12.466,17.345 7.5,26.846 L 18.06,-10.933 C 14.535,-4.189 7.615,0 0,0 m 0,-6.568 c 4.954,0 9.765,-2.674 12.238,-7.408 l 60.298,-115.378 c 3.373,-6.453 1.149,-14.416 -5.08,-18.186 -2.227,-1.349 -4.693,-1.995 -7.132,-1.995 -4.379,0 -8.669,2.084 -11.337,5.925 l -74.275,106.917 c -4.54,6.535 -2.623,15.546 4.184,19.666 l 13.977,8.462 c 2.238,1.355 4.7,1.997 7.127,1.997"
               style="fill:#ffffff;fill-opacity:1;fill-rule:nonzero;stroke:none"
               id="path856" />
          </g>
          <g
             id="g858"
             transform="translate(213.0367,355.7014)">
            <path
               d="m 0,0 c -2.856,0 -5.697,0.732 -8.216,2.117 l -14.316,7.874 c -4.114,2.263 -7.143,6.168 -8.311,10.716 -1.167,4.549 -0.393,9.433 2.124,13.397 l 69.772,109.91 c 3.15,4.963 8.544,7.925 14.426,7.925 2.861,0 5.703,-0.731 8.219,-2.115 7.879,-4.334 11.05,-14.101 7.22,-22.236 L 15.463,9.805 C 12.658,3.849 6.588,0 0,0"
               style="fill:#9fbde7;fill-opacity:1;fill-rule:nonzero;stroke:none"
               id="path860" />
          </g>
          <g
             id="g862"
             transform="translate(268.5162,510.925)">
            <path
               d="m 0,0 c -7.014,0 -13.443,-3.532 -17.199,-9.449 l -69.773,-109.91 c -3,-4.727 -3.924,-10.548 -2.532,-15.972 1.392,-5.423 5.003,-10.081 9.909,-12.779 l 14.318,-7.874 c 3.002,-1.652 6.389,-2.524 9.797,-2.524 7.855,0 15.09,4.589 18.434,11.691 l 55.455,117.783 c 4.568,9.7 0.786,21.346 -8.608,26.513 C 6.802,-0.872 3.412,0 0,0 m 0,-6.568 c 2.251,0 4.532,-0.552 6.636,-1.709 6.379,-3.509 8.932,-11.372 5.831,-17.959 L -42.988,-144.02 c -2.363,-5.017 -7.335,-7.919 -12.492,-7.919 -2.242,0 -4.52,0.548 -6.632,1.71 l -14.317,7.875 c -6.972,3.833 -9.261,12.757 -4.997,19.474 l 69.772,109.91 c 2.616,4.12 7.075,6.402 11.654,6.402"
               style="fill:#ffffff;fill-opacity:1;fill-rule:nonzero;stroke:none"
               id="path864" />
          </g>
          <g
             id="g866"
             transform="translate(81.8717,112.3478)">
            <path
               d="m 0,0 c 11.468,0 17.108,7.708 17.108,18.425 0,10.716 -5.64,18.048 -16.545,18.048 H -16.168 V 0 Z m -49.069,54.333 c 0,6.769 3.572,10.341 10.34,10.341 H 6.769 c 26.132,0 43.804,-19.177 43.804,-46.249 C 50.573,-8.647 32.901,-28.2 6.769,-28.2 h -22.937 v -31.209 c 0,-6.768 -3.572,-10.34 -10.341,-10.34 h -12.22 c -6.768,0 -10.34,3.572 -10.34,10.34 z"
               style="fill:#3a51ab;fill-opacity:1;fill-rule:nonzero;stroke:none"
               id="path868" />
          </g>
          <g
             id="g870"
             transform="translate(154.0621,30.5666)">
            <path
               d="m 0,0 c 1.504,-0.376 3.383,-0.94 5.64,-0.94 5.828,0 11.091,4.7 13.348,10.34 l 1.879,4.512 -35.908,82.91 c -3.195,7.144 0,12.032 7.896,12.032 H 7.52 c 6.204,0 9.964,-2.82 11.843,-8.46 L 30.832,64.297 c 1.691,-5.264 3.572,-15.04 3.572,-15.04 h 0.375 c 0,0 1.881,9.212 3.198,14.476 l 9.775,36.285 c 1.692,6.016 5.453,8.836 11.656,8.836 h 13.725 c 7.52,0 10.904,-4.7 8.272,-11.844 L 46.061,1.692 c -8.084,-21.621 -25.005,-29.14 -40.421,-29.14 -5.077,0 -9.777,1.128 -13.536,2.443 -6.206,2.068 -7.709,7.521 -5.077,13.537 l 2.444,5.451 C -7.896,-0.188 -3.949,0.752 0,0"
               style="fill:#3a51ab;fill-opacity:1;fill-rule:nonzero;stroke:none"
               id="path872" />
          </g>
          <g
             id="g874"
             transform="translate(240.1656,165.5529)">
            <path
               d="m 0,0 c -1.691,7.145 1.692,11.469 9.024,11.469 h 13.349 c 6.204,0 9.964,-3.009 11.28,-9.213 l 15.04,-74.825 c 1.693,-8.272 1.693,-14.1 1.693,-14.1 h 0.376 c 0,0 0.187,5.828 2.256,14.1 L 71.441,2.444 c 1.505,6.016 5.265,9.025 11.469,9.025 h 8.084 c 6.204,0 9.964,-3.009 11.28,-9.025 l 18.048,-75.013 c 2.069,-8.272 2.257,-14.1 2.257,-14.1 h 0.376 c 0,0 0,5.828 1.691,14.1 l 16.357,75.013 c 1.316,6.016 5.076,9.025 11.469,9.025 h 12.784 c 7.332,0 10.716,-4.324 9.023,-11.469 l -28.952,-114.118 c -1.504,-6.016 -5.264,-8.836 -11.468,-8.836 h -18.236 c -6.204,0 -9.965,3.008 -11.469,9.024 L 89.49,-55.085 c -2.068,8.648 -2.632,15.792 -2.632,15.792 h -0.376 c 0,0 -0.564,-7.144 -2.632,-15.792 L 69.186,-113.93 c -1.504,-6.016 -5.264,-9.024 -11.468,-9.024 H 39.105 c -6.204,0 -9.964,3.008 -11.468,9.024 z"
               style="fill:#3a51ab;fill-opacity:1;fill-rule:nonzero;stroke:none"
               id="path876" />
          </g>
          <g
             id="g878"
             transform="translate(455.6139,64.5949)">
            <path
               d="M 0,0 C 9.399,0 16.544,9.213 16.544,17.108 V 19.74 H 13.536 C 3.571,19.74 -9.213,17.108 -9.213,8.272 -9.213,3.761 -6.017,0 0,0 m 13.348,38.354 h 2.82 v 1.691 c 0,8.084 -6.58,10.717 -13.725,10.717 -6.204,0 -12.595,-2.069 -17.484,-4.324 -6.204,-2.633 -10.903,-1.504 -13.912,4.511 l -2.256,4.7 c -2.82,5.829 -1.692,10.905 4.136,13.913 7.333,3.383 18.612,7.52 32.525,7.52 26.696,0 43.24,-14.853 43.24,-39.481 v -49.257 c 0,-6.768 -3.572,-10.34 -10.339,-10.34 h -9.025 c -6.767,0 -10.34,3.384 -10.34,10.528 v 0.752 c 0,1.128 0.188,1.88 0.188,1.88 H 18.8 c 0,0 -9.212,-15.416 -28.576,-15.416 -18.613,0 -31.585,12.784 -31.585,29.517 0,25.944 30.833,33.089 54.709,33.089"
               style="fill:#3a51ab;fill-opacity:1;fill-rule:nonzero;stroke:none"
               id="path880" />
          </g>
          <g
             id="g882"
             transform="translate(522.1636,166.6808)">
            <path
               d="M 0,0 C 0,6.769 3.572,10.341 10.34,10.341 H 22.185 C 28.952,10.341 32.524,6.769 32.524,0 v -59.221 h 9.212 l 15.041,25.004 c 2.82,4.889 6.58,6.957 12.22,6.957 h 12.408 c 8.46,0 11.281,-5.452 6.769,-12.408 L 67.869,-71.253 v -0.376 l 24.628,-40.045 c 4.324,-7.144 1.505,-12.408 -6.956,-12.408 h -14.1 c -5.64,0 -9.4,2.256 -12.22,7.332 L 42.677,-86.481 H 32.524 v -27.261 c 0,-6.768 -3.572,-10.34 -10.339,-10.34 H 10.34 c -6.768,0 -10.34,3.572 -10.34,10.34 z"
               style="fill:#3a51ab;fill-opacity:1;fill-rule:nonzero;stroke:none"
               id="path884" />
          </g>
          <g
             id="g886"
             transform="translate(684.0318,103.3244)">
            <path
               d="M 0,0 C 0,7.896 -5.076,14.476 -13.349,14.476 -22.748,14.476 -27.261,7.708 -28.952,0 Z m -12.596,38.353 c 28.764,0 44.744,-20.305 44.744,-46.249 0,-5.077 -4.511,-10.716 -10.904,-10.716 h -50.948 c 2.443,-11.845 12.22,-17.297 22.559,-17.297 6.582,0 12.786,2.068 17.673,4.512 6.204,2.82 10.716,2.068 13.912,-3.948 l 2.632,-4.888 c 3.009,-5.829 2.069,-10.905 -3.571,-14.1 -6.957,-3.948 -18.425,-8.648 -33.277,-8.648 -34.593,0 -53.205,25.003 -53.205,50.76 0,28.389 19.176,50.574 50.385,50.574"
               style="fill:#3a51ab;fill-opacity:1;fill-rule:nonzero;stroke:none"
               id="path888" />
          </g>
          <g
             id="g890"
             transform="translate(218.7848,368.6652)">
            <path
               d="m 0,0 h -19.556 c -5.277,4.991 -12.523,7.907 -20.207,7.907 h -10.138 c -5.724,0 -11.315,-1.604 -16.032,-4.6 l -9.745,-6.192 c -6.095,-3.873 -9.737,-10.269 -9.737,-17.105 0,-6.835 3.642,-13.233 9.737,-17.105 l 9.745,-6.191 c 4.718,-2.997 10.308,-4.601 16.032,-4.601 h 10.138 c 7.687,0 14.942,2.911 20.219,8.439 h 19.53 z"
               style="fill:#3a51ab;fill-opacity:1;fill-rule:nonzero;stroke:none"
               id="path892" />
          </g>
          <g
             id="g894"
             transform="translate(179.0221,381.5724)">
            <path
               d="m 0,0 h -10.138 c -6.701,0 -13.173,-1.86 -18.714,-5.381 l -9.745,-6.191 c -7.549,-4.796 -12.056,-12.768 -12.056,-21.325 0,-8.557 4.507,-16.53 12.056,-21.326 l 9.745,-6.191 c 5.542,-3.52 12.013,-5.38 18.714,-5.38 H 0 c 8.454,0 16.272,2.981 22.253,8.439 H 49.2 54.198 l 0.002,4.998 0.014,39.449 0.002,5.002 H 49.214 22.104 C 15.988,-2.794 8.217,0 0,0 m 0,-5 c 7.683,0 14.929,-2.916 20.207,-7.906 H 49.214 L 49.2,-52.355 H 20.218 C 14.941,-57.883 7.687,-60.794 0,-60.794 h -10.138 c -5.724,0 -11.314,1.604 -16.032,4.601 l -9.745,6.191 c -6.096,3.872 -9.738,10.27 -9.738,17.105 0,6.835 3.642,13.232 9.738,17.105 l 9.745,6.19 C -21.452,-6.604 -15.862,-5 -10.138,-5 H 0"
               style="fill:#ffffff;fill-opacity:1;fill-rule:nonzero;stroke:none"
               id="path896" />
          </g>
          <g
             id="g898"
             transform="translate(166.8062,364.6623)">
            <path
               d="m 0,0 c 0,-2.671 -2.165,-4.836 -4.836,-4.836 -2.671,0 -4.836,2.165 -4.836,4.836 0,2.671 2.165,4.836 4.836,4.836 C -2.165,4.836 0,2.671 0,0"
               style="fill:#ffffff;fill-opacity:1;fill-rule:nonzero;stroke:none"
               id="path900" />
          </g>
          <g
             id="g902"
             transform="translate(166.8062,332.6057)">
            <path
               d="m 0,0 c 0,-2.671 -2.165,-4.836 -4.836,-4.836 -2.671,0 -4.836,2.165 -4.836,4.836 0,2.671 2.165,4.836 4.836,4.836 C -2.165,4.836 0,2.671 0,0"
               style="fill:#ffffff;fill-opacity:1;fill-rule:nonzero;stroke:none"
               id="path904" />
          </g>
          <g
             id="g906"
             transform="translate(473.192,206.3937)">
            <path
               d="m 0,0 c -25.008,0 -34.154,28.545 -37.598,39.291 -5.249,16.382 -9.335,37.638 -13.287,58.193 -3.047,15.852 -6.198,32.243 -9.7,45.314 -0.288,1.077 -0.571,2.102 -0.85,3.079 -0.641,2.259 -3.836,2.284 -4.521,0.039 -2.512,-8.223 -6.442,-21.447 -8.405,-29.073 -4.03,-15.651 -8.195,-31.833 -13.682,-44.624 -8.848,-20.624 -21.272,-31.081 -36.931,-31.081 -9.968,0 -24.156,3.915 -35.129,22.567 -5.558,9.45 -9.332,20.809 -12.98,31.793 -2.519,7.582 -7.616,22.929 -11.417,26.97 h -70.556 v 40 h 71.824 c 9.968,0 24.156,-3.915 35.128,-22.567 5.559,-9.451 9.333,-20.809 12.981,-31.794 1.188,-3.577 2.951,-8.883 4.882,-13.916 1.397,-3.645 6.581,-3.574 7.879,0.108 l 0.045,0.127 c 3.272,9.288 6.295,21.031 9.217,32.387 4.029,15.651 8.195,31.833 13.682,44.624 8.848,20.625 21.272,31.082 36.931,31.082 25.008,0 34.153,-28.545 37.596,-39.291 5.249,-16.381 9.335,-37.637 13.287,-58.192 2.326,-12.096 7.147,-33.57 9.447,-43.575 0.316,-1.377 2.272,-1.386 2.597,-0.012 0.331,1.4 0.669,2.877 1.012,4.436 3.656,16.612 6.897,37.432 10.03,57.567 3.915,25.157 7.964,51.171 13.095,70.954 3.598,13.868 12.022,46.345 37.91,46.345 25.46,0 34.401,-30.994 37.767,-42.662 5.184,-17.977 9.251,-41.468 13.182,-64.186 2.339,-13.511 7.61,-39.061 10.327,-51.719 0.394,-1.84 3.006,-1.869 3.445,-0.039 2.097,8.728 5.537,23.456 7.63,34.238 3.931,20.253 19.728,35.768 39.311,39.888 5.668,1.191 11.565,0.657 17.007,-1.326 13.198,-4.807 24.769,-13.247 33.378,-24.346 l 4.987,-6.432 c 2.201,-2.745 0.247,-6.816 -3.272,-6.816 h -41.694 c -5.089,0 -9.484,-3.613 -10.45,-8.588 -3.593,-18.517 -7.541,-37.86 -12.795,-52.976 -3.057,-8.794 -12.358,-35.555 -36.337,-35.555 -25.461,0 -34.402,30.996 -37.768,42.664 -5.185,17.977 -9.251,41.468 -13.183,64.186 -2.107,12.177 -6.309,33.024 -8.896,45.532 -0.479,2.316 -3.792,2.294 -4.236,-0.029 C 58.103,158.003 53.254,131.744 51.006,117.302 47.091,92.144 43.042,66.13 37.91,46.347 34.313,32.478 25.889,0 0,0"
               style="fill:#ffffff;fill-opacity:1;fill-rule:nonzero;stroke:none"
               id="path908" />
          </g>
        </g>
      </g>
      <g
         id="g910">
        <g
           id="g912"
           clip-path="url(#clipPath916)">
          <g
             id="g918"
             transform="translate(180.8023,498.258)">
            <path
               d="M 0,0 C 41.232,-95.283 41.232,-203.373 0,-298.655"
               style="fill:none;stroke:#3a51ab;stroke-width:11.006;stroke-linecap:butt;stroke-linejoin:miter;stroke-miterlimit:10;stroke-dasharray:none;stroke-opacity:1"
               id="path920" />
          </g>
          <g
             id="g922"
             transform="translate(198.8043,498.258)">
            <path
               d="M 0,0 C 41.231,-95.283 41.231,-203.373 0,-298.655"
               style="fill:none;stroke:#3a51ab;stroke-width:11.006;stroke-linecap:butt;stroke-linejoin:miter;stroke-miterlimit:10;stroke-dasharray:none;stroke-opacity:1"
               id="path924" />
          </g>
          <g
             id="g926"
             transform="translate(216.8053,498.258)">
            <path
               d="M 0,0 C 41.231,-95.283 41.231,-203.373 0,-298.655"
               style="fill:none;stroke:#3a51ab;stroke-width:11.006;stroke-linecap:butt;stroke-linejoin:miter;stroke-miterlimit:10;stroke-dasharray:none;stroke-opacity:1"
               id="path928" />
          </g>
          <g
             id="g930"
             transform="translate(234.8062,498.258)">
            <path
               d="M 0,0 C 41.232,-95.283 41.232,-203.373 0,-298.655"
               style="fill:none;stroke:#3a51ab;stroke-width:11.006;stroke-linecap:butt;stroke-linejoin:miter;stroke-miterlimit:10;stroke-dasharray:none;stroke-opacity:1"
               id="path932" />
          </g>
          <g
             id="g934"
             transform="translate(252.8072,498.258)">
            <path
               d="M 0,0 C 41.232,-95.283 41.232,-203.373 0,-298.655"
               style="fill:none;stroke:#3a51ab;stroke-width:11.006;stroke-linecap:butt;stroke-linejoin:miter;stroke-miterlimit:10;stroke-dasharray:none;stroke-opacity:1"
               id="path936" />
          </g>
          <g
             id="g938"
             transform="translate(270.8082,498.258)">
            <path
               d="M 0,0 C 41.232,-95.283 41.232,-203.373 0,-298.655"
               style="fill:none;stroke:#3a51ab;stroke-width:11.006;stroke-linecap:butt;stroke-linejoin:miter;stroke-miterlimit:10;stroke-dasharray:none;stroke-opacity:1"
               id="path940" />
          </g>
          <g
             id="g942"
             transform="translate(288.8092,498.258)">
            <path
               d="M 0,0 C 41.232,-95.283 41.232,-203.373 0,-298.655"
               style="fill:none;stroke:#3a51ab;stroke-width:11.006;stroke-linecap:butt;stroke-linejoin:miter;stroke-miterlimit:10;stroke-dasharray:none;stroke-opacity:1"
               id="path944" />
          </g>
          <g
             id="g946"
             transform="translate(306.8102,498.258)">
            <path
               d="M 0,0 C 41.232,-95.283 41.232,-203.373 0,-298.655"
               style="fill:none;stroke:#3a51ab;stroke-width:11.006;stroke-linecap:butt;stroke-linejoin:miter;stroke-miterlimit:10;stroke-dasharray:none;stroke-opacity:1"
               id="path948" />
          </g>
          <g
             id="g950"
             transform="translate(324.8121,498.258)">
            <path
               d="M 0,0 C 41.232,-95.283 41.232,-203.373 0,-298.655"
               style="fill:none;stroke:#3a51ab;stroke-width:11.006;stroke-linecap:butt;stroke-linejoin:miter;stroke-miterlimit:10;stroke-dasharray:none;stroke-opacity:1"
               id="path952" />
          </g>
          <g
             id="g954"
             transform="translate(342.8121,498.258)">
            <path
               d="M 0,0 C 41.233,-95.283 41.233,-203.373 0,-298.655"
               style="fill:none;stroke:#3a51ab;stroke-width:11.006;stroke-linecap:butt;stroke-linejoin:miter;stroke-miterlimit:10;stroke-dasharray:none;stroke-opacity:1"
               id="path956" />
          </g>
          <g
             id="g958"
             transform="translate(360.8141,498.258)">
            <path
               d="M 0,0 C 41.231,-95.283 41.231,-203.373 0,-298.655"
               style="fill:none;stroke:#3a51ab;stroke-width:11.006;stroke-linecap:butt;stroke-linejoin:miter;stroke-miterlimit:10;stroke-dasharray:none;stroke-opacity:1"
               id="path960" />
          </g>
          <g
             id="g962"
             transform="translate(378.815,498.258)">
            <path
               d="M 0,0 C 41.232,-95.283 41.232,-203.373 0,-298.655"
               style="fill:none;stroke:#3a51ab;stroke-width:11.006;stroke-linecap:butt;stroke-linejoin:miter;stroke-miterlimit:10;stroke-dasharray:none;stroke-opacity:1"
               id="path964" />
          </g>
          <g
             id="g966"
             transform="translate(396.816,498.258)">
            <path
               d="M 0,0 C 41.232,-95.283 41.232,-203.373 0,-298.655"
               style="fill:none;stroke:#3a51ab;stroke-width:11.006;stroke-linecap:butt;stroke-linejoin:miter;stroke-miterlimit:10;stroke-dasharray:none;stroke-opacity:1"
               id="path968" />
          </g>
          <g
             id="g970"
             transform="translate(414.817,498.258)">
            <path
               d="M 0,0 C 41.232,-95.283 41.232,-203.373 0,-298.655"
               style="fill:none;stroke:#3a51ab;stroke-width:11.006;stroke-linecap:butt;stroke-linejoin:miter;stroke-miterlimit:10;stroke-dasharray:none;stroke-opacity:1"
               id="path972" />
          </g>
          <g
             id="g974"
             transform="translate(432.818,498.258)">
            <path
               d="M 0,0 C 41.232,-95.283 41.232,-203.373 0,-298.655"
               style="fill:none;stroke:#3a51ab;stroke-width:11.006;stroke-linecap:butt;stroke-linejoin:miter;stroke-miterlimit:10;stroke-dasharray:none;stroke-opacity:1"
               id="path976" />
          </g>
          <g
             id="g978"
             transform="translate(450.8189,498.258)">
            <path
               d="M 0,0 C 41.232,-95.283 41.232,-203.373 0,-298.655"
               style="fill:none;stroke:#3a51ab;stroke-width:11.006;stroke-linecap:butt;stroke-linejoin:miter;stroke-miterlimit:10;stroke-dasharray:none;stroke-opacity:1"
               id="path980" />
          </g>
          <g
             id="g982"
             transform="translate(468.8199,498.258)">
            <path
               d="M 0,0 C 41.232,-95.283 41.232,-203.373 0,-298.655"
               style="fill:none;stroke:#3a51ab;stroke-width:11.006;stroke-linecap:butt;stroke-linejoin:miter;stroke-miterlimit:10;stroke-dasharray:none;stroke-opacity:1"
               id="path984" />
          </g>
          <g
             id="g986"
             transform="translate(486.8219,498.258)">
            <path
               d="M 0,0 C 41.232,-95.283 41.232,-203.373 0,-298.655"
               style="fill:none;stroke:#3a51ab;stroke-width:11.006;stroke-linecap:butt;stroke-linejoin:miter;stroke-miterlimit:10;stroke-dasharray:none;stroke-opacity:1"
               id="path988" />
          </g>
          <g
             id="g990"
             transform="translate(504.8219,498.258)">
            <path
               d="M 0,0 C 41.232,-95.283 41.232,-203.373 0,-298.655"
               style="fill:none;stroke:#3a51ab;stroke-width:11.006;stroke-linecap:butt;stroke-linejoin:miter;stroke-miterlimit:10;stroke-dasharray:none;stroke-opacity:1"
               id="path992" />
          </g>
          <g
             id="g994"
             transform="translate(522.8238,498.258)">
            <path
               d="M 0,0 C 41.232,-95.283 41.232,-203.373 0,-298.655"
               style="fill:none;stroke:#3a51ab;stroke-width:11.006;stroke-linecap:butt;stroke-linejoin:miter;stroke-miterlimit:10;stroke-dasharray:none;stroke-opacity:1"
               id="path996" />
          </g>
          <g
             id="g998"
             transform="translate(540.8248,498.258)">
            <path
               d="M 0,0 C 41.231,-95.283 41.231,-203.373 0,-298.655"
               style="fill:none;stroke:#3a51ab;stroke-width:11.006;stroke-linecap:butt;stroke-linejoin:miter;stroke-miterlimit:10;stroke-dasharray:none;stroke-opacity:1"
               id="path1000" />
          </g>
          <g
             id="g1002"
             transform="translate(558.8257,498.258)">
            <path
               d="M 0,0 C 41.232,-95.283 41.232,-203.373 0,-298.655"
               style="fill:none;stroke:#3a51ab;stroke-width:11.006;stroke-linecap:butt;stroke-linejoin:miter;stroke-miterlimit:10;stroke-dasharray:none;stroke-opacity:1"
               id="path1004" />
          </g>
          <g
             id="g1006"
             transform="translate(576.8267,498.258)">
            <path
               d="M 0,0 C 41.232,-95.283 41.232,-203.373 0,-298.655"
               style="fill:none;stroke:#3a51ab;stroke-width:11.006;stroke-linecap:butt;stroke-linejoin:miter;stroke-miterlimit:10;stroke-dasharray:none;stroke-opacity:1"
               id="path1008" />
          </g>
          <g
             id="g1010"
             transform="translate(596.0298,498.258)">
            <path
               d="M 0,0 C 41.232,-95.283 41.232,-203.373 0,-298.655"
               style="fill:none;stroke:#3a51ab;stroke-width:11.006;stroke-linecap:butt;stroke-linejoin:miter;stroke-miterlimit:10;stroke-dasharray:none;stroke-opacity:1"
               id="path1012" />
          </g>
          <g
             id="g1014"
             transform="translate(614.0308,498.258)">
            <path
               d="M 0,0 C 41.232,-95.283 41.232,-203.373 0,-298.655"
               style="fill:none;stroke:#3a51ab;stroke-width:11.006;stroke-linecap:butt;stroke-linejoin:miter;stroke-miterlimit:10;stroke-dasharray:none;stroke-opacity:1"
               id="path1016" />
          </g>
          <g
             id="g1018"
             transform="translate(632.0318,498.258)">
            <path
               d="M 0,0 C 41.232,-95.283 41.232,-203.373 0,-298.655"
               style="fill:none;stroke:#3a51ab;stroke-width:11.006;stroke-linecap:butt;stroke-linejoin:miter;stroke-miterlimit:10;stroke-dasharray:none;stroke-opacity:1"
               id="path1020" />
          </g>
          <g
             id="g1022"
             transform="translate(650.0328,498.258)">
            <path
               d="M 0,0 C 41.232,-95.283 41.232,-203.373 0,-298.655"
               style="fill:none;stroke:#3a51ab;stroke-width:11.006;stroke-linecap:butt;stroke-linejoin:miter;stroke-miterlimit:10;stroke-dasharray:none;stroke-opacity:1"
               id="path1024" />
          </g>
          <g
             id="g1026"
             transform="translate(668.0347,498.258)">
            <path
               d="M 0,0 C 41.232,-95.283 41.232,-203.373 0,-298.655"
               style="fill:none;stroke:#3a51ab;stroke-width:11.006;stroke-linecap:butt;stroke-linejoin:miter;stroke-miterlimit:10;stroke-dasharray:none;stroke-opacity:1"
               id="path1028" />
          </g>
          <g
             id="g1030"
             transform="translate(686.0347,498.258)">
            <path
               d="M 0,0 C 41.232,-95.283 41.232,-203.373 0,-298.655"
               style="fill:none;stroke:#3a51ab;stroke-width:11.006;stroke-linecap:butt;stroke-linejoin:miter;stroke-miterlimit:10;stroke-dasharray:none;stroke-opacity:1"
               id="path1032" />
          </g>
          <g
             id="g1034"
             transform="translate(704.0367,498.258)">
            <path
               d="M 0,0 C 41.231,-95.283 41.231,-203.373 0,-298.655"
               style="fill:none;stroke:#3a51ab;stroke-width:11.006;stroke-linecap:butt;stroke-linejoin:miter;stroke-miterlimit:10;stroke-dasharray:none;stroke-opacity:1"
               id="path1036" />
          </g>
        </g>
      </g>
    </g>
  </g>
</svg>
